<svg height="512" viewBox="0 0 512 512" width="512" xmlns="http://www.w3.org/2000/svg"><path d="m256.5 17c132.272198 0 239.5 107.227802 239.5 239.5s-107.227802 239.5-239.5 239.5-239.5-107.227802-239.5-239.5 107.227802-239.5 239.5-239.5zm0 40c-110.180808 0-199.5 89.319192-199.5 199.5s89.319192 199.5 199.5 199.5 199.5-89.319192 199.5-199.5-89.319192-199.5-199.5-199.5zm-73.94 113.64c15.36 0 29.2 2.72 41.52 8.16s22.56 13.28 30.72 23.52l-30.24 27.36-.42507-.50785c-10.798178-12.781433-23.856488-19.17215-39.17493-19.17215-9.12 0-17.24 2-24.36 6s-12.64 9.64-16.56 16.92-5.88 15.64-5.88 25.08 1.96 17.8 5.88 25.08 9.44 12.92 16.56 16.92 15.24 6 24.36 6c15.52 0 28.72-6.56 39.6-19.68l30.24 27.36-.523676.650358c-8.07301 9.922173-18.138452 17.545387-30.196324 22.869642-12.32 5.44-26.16 8.16-41.52 8.16-17.6 0-33.4-3.72-47.4-11.16s-25-17.8-33-31.08-12-28.32-12-45.12 4-31.84 12-45.12 19-23.64 33-31.08 29.8-11.16 47.4-11.16zm177.12 0c15.36 0 29.2 2.72 41.52 8.16s22.56 13.28 30.72 23.52l-30.24 27.36-.42507-.50785c-10.798178-12.781433-23.856488-19.17215-39.17493-19.17215-9.12 0-17.24 2-24.36 6s-12.64 9.64-16.56 16.92-5.88 15.64-5.88 25.08 1.96 17.8 5.88 25.08 9.44 12.92 16.56 16.92 15.24 6 24.36 6c15.52 0 28.72-6.56 39.6-19.68l30.24 27.36-.523676.650358c-8.07301 9.922173-18.138452 17.545387-30.196324 22.869642-12.32 5.44-26.16 8.16-41.52 8.16-17.6 0-33.4-3.72-47.4-11.16s-25-17.8-33-31.08-12-28.32-12-45.12 4-31.84 12-45.12 19-23.64 33-31.08 29.8-11.16 47.4-11.16z" fill="#fff"/></svg>